<mxfile host="Electron" agent="Mozilla/5.0 (Windows NT 10.0; Win64; x64) AppleWebKit/537.36 (KHTML, like Gecko) draw.io/28.0.6 Chrome/138.0.7204.100 Electron/37.2.3 Safari/537.36" version="28.0.6">
  <diagram name="Page-1" id="wA9IzEFwKQqFHvrkm-6U">
    <mxGraphModel dx="1042" dy="626" grid="1" gridSize="10" guides="1" tooltips="1" connect="1" arrows="1" fold="1" page="1" pageScale="1" pageWidth="850" pageHeight="1100" math="0" shadow="0">
      <root>
        <mxCell id="0" />
        <mxCell id="1" parent="0" />
        <mxCell id="2Wd-GS6qr9fwty7BjQF4-1" value="" style="rounded=0;whiteSpace=wrap;html=1;fillColor=none;strokeColor=default;dashed=1;" parent="1" vertex="1">
          <mxGeometry x="40" y="80" width="120" height="480" as="geometry" />
        </mxCell>
        <mxCell id="2Wd-GS6qr9fwty7BjQF4-2" value="&lt;h3&gt;&lt;font style=&quot;font-size: 16px; background-color: light-dark(#ffffff, var(--ge-dark-color, #121212));&quot;&gt;SOURCE FILE&lt;/font&gt;&lt;/h3&gt;" style="rounded=0;whiteSpace=wrap;html=1;fillColor=none;strokeColor=none;" parent="1" vertex="1">
          <mxGeometry x="40" y="50" width="120" height="60" as="geometry" />
        </mxCell>
        <mxCell id="2Wd-GS6qr9fwty7BjQF4-21" value="" style="edgeStyle=orthogonalEdgeStyle;rounded=0;orthogonalLoop=1;jettySize=auto;html=1;" parent="1" source="2Wd-GS6qr9fwty7BjQF4-3" target="2Wd-GS6qr9fwty7BjQF4-11" edge="1">
          <mxGeometry relative="1" as="geometry">
            <Array as="points">
              <mxPoint x="170" y="235" />
              <mxPoint x="170" y="275" />
            </Array>
          </mxGeometry>
        </mxCell>
        <mxCell id="2Wd-GS6qr9fwty7BjQF4-25" style="edgeStyle=orthogonalEdgeStyle;rounded=0;orthogonalLoop=1;jettySize=auto;html=1;" parent="1" source="2Wd-GS6qr9fwty7BjQF4-3" target="2Wd-GS6qr9fwty7BjQF4-10" edge="1">
          <mxGeometry relative="1" as="geometry" />
        </mxCell>
        <mxCell id="2Wd-GS6qr9fwty7BjQF4-26" style="edgeStyle=orthogonalEdgeStyle;rounded=0;orthogonalLoop=1;jettySize=auto;html=1;" parent="1" source="2Wd-GS6qr9fwty7BjQF4-3" target="2Wd-GS6qr9fwty7BjQF4-9" edge="1">
          <mxGeometry relative="1" as="geometry" />
        </mxCell>
        <mxCell id="2Wd-GS6qr9fwty7BjQF4-3" value="&lt;p&gt;&lt;font style=&quot;font-size: 13px;&quot;&gt;CRM&lt;/font&gt;&lt;/p&gt;" style="image;aspect=fixed;html=1;points=[];align=center;fontSize=12;image=img/lib/azure2/general/Folder_Blank.svg;" parent="1" vertex="1">
          <mxGeometry x="60" y="204.77" width="74.5" height="60.46" as="geometry" />
        </mxCell>
        <mxCell id="2Wd-GS6qr9fwty7BjQF4-22" value="" style="edgeStyle=orthogonalEdgeStyle;rounded=0;orthogonalLoop=1;jettySize=auto;html=1;" parent="1" source="2Wd-GS6qr9fwty7BjQF4-4" target="2Wd-GS6qr9fwty7BjQF4-14" edge="1">
          <mxGeometry relative="1" as="geometry" />
        </mxCell>
        <mxCell id="2Wd-GS6qr9fwty7BjQF4-24" style="edgeStyle=orthogonalEdgeStyle;rounded=0;orthogonalLoop=1;jettySize=auto;html=1;entryX=0;entryY=0.5;entryDx=0;entryDy=0;" parent="1" source="2Wd-GS6qr9fwty7BjQF4-4" target="2Wd-GS6qr9fwty7BjQF4-12" edge="1">
          <mxGeometry relative="1" as="geometry" />
        </mxCell>
        <mxCell id="2Wd-GS6qr9fwty7BjQF4-4" value="&lt;p&gt;&lt;span style=&quot;font-size: 13px;&quot;&gt;EPR&lt;/span&gt;&lt;/p&gt;" style="image;aspect=fixed;html=1;points=[];align=center;fontSize=12;image=img/lib/azure2/general/Folder_Blank.svg;" parent="1" vertex="1">
          <mxGeometry x="65.5" y="370" width="69" height="56.00000000000001" as="geometry" />
        </mxCell>
        <mxCell id="2Wd-GS6qr9fwty7BjQF4-5" value="" style="rounded=1;whiteSpace=wrap;html=1;fillColor=none;strokeColor=#b46504;" parent="1" vertex="1">
          <mxGeometry x="200" y="150" width="150" height="410" as="geometry" />
        </mxCell>
        <mxCell id="2Wd-GS6qr9fwty7BjQF4-6" value="&lt;font style=&quot;font-size: 14px; color: light-dark(rgb(0, 0, 0), rgb(0, 0, 0));&quot;&gt;BRONZE LAYER&lt;/font&gt;" style="rounded=1;whiteSpace=wrap;html=1;strokeColor=#b46504;fillColor=#fad7ac;" parent="1" vertex="1">
          <mxGeometry x="200" y="80" width="150" height="60" as="geometry" />
        </mxCell>
        <mxCell id="2Wd-GS6qr9fwty7BjQF4-9" value="&lt;font style=&quot;color: rgb(0, 0, 0);&quot;&gt;crm_sales_details&lt;/font&gt;" style="rounded=1;whiteSpace=wrap;html=1;fillColor=#fad7ac;strokeColor=#b46504;" parent="1" vertex="1">
          <mxGeometry x="205" y="180" width="140" height="30" as="geometry" />
        </mxCell>
        <mxCell id="2Wd-GS6qr9fwty7BjQF4-10" value="&lt;font style=&quot;color: rgb(0, 0, 0);&quot;&gt;crm_cust_info&lt;/font&gt;" style="rounded=1;whiteSpace=wrap;html=1;fillColor=#fad7ac;strokeColor=#b46504;" parent="1" vertex="1">
          <mxGeometry x="205" y="220" width="140" height="30" as="geometry" />
        </mxCell>
        <mxCell id="6ItISwijsfF4My4xdIuM-14" style="edgeStyle=orthogonalEdgeStyle;rounded=0;orthogonalLoop=1;jettySize=auto;html=1;entryX=0;entryY=0.5;entryDx=0;entryDy=0;" parent="1" source="2Wd-GS6qr9fwty7BjQF4-11" target="6ItISwijsfF4My4xdIuM-5" edge="1">
          <mxGeometry relative="1" as="geometry" />
        </mxCell>
        <mxCell id="2Wd-GS6qr9fwty7BjQF4-11" value="&lt;font style=&quot;color: rgb(0, 0, 0);&quot;&gt;crm_prd_info&lt;/font&gt;" style="rounded=1;whiteSpace=wrap;html=1;fillColor=#fad7ac;strokeColor=#b46504;" parent="1" vertex="1">
          <mxGeometry x="205" y="260" width="140" height="30" as="geometry" />
        </mxCell>
        <mxCell id="6ItISwijsfF4My4xdIuM-15" style="edgeStyle=orthogonalEdgeStyle;rounded=0;orthogonalLoop=1;jettySize=auto;html=1;entryX=0;entryY=0.5;entryDx=0;entryDy=0;" parent="1" source="2Wd-GS6qr9fwty7BjQF4-12" target="6ItISwijsfF4My4xdIuM-1" edge="1">
          <mxGeometry relative="1" as="geometry" />
        </mxCell>
        <mxCell id="2Wd-GS6qr9fwty7BjQF4-12" value="&lt;font color=&quot;#000000&quot;&gt;erp_cust_az12&lt;/font&gt;" style="rounded=1;whiteSpace=wrap;html=1;fillColor=#fad7ac;strokeColor=#b46504;" parent="1" vertex="1">
          <mxGeometry x="205" y="343" width="140" height="30" as="geometry" />
        </mxCell>
        <mxCell id="6ItISwijsfF4My4xdIuM-16" style="edgeStyle=orthogonalEdgeStyle;rounded=0;orthogonalLoop=1;jettySize=auto;html=1;entryX=0;entryY=0.5;entryDx=0;entryDy=0;" parent="1" source="2Wd-GS6qr9fwty7BjQF4-13" target="6ItISwijsfF4My4xdIuM-7" edge="1">
          <mxGeometry relative="1" as="geometry" />
        </mxCell>
        <mxCell id="2Wd-GS6qr9fwty7BjQF4-13" value="&lt;font color=&quot;#000000&quot;&gt;erp_loc_a101&lt;/font&gt;" style="rounded=1;whiteSpace=wrap;html=1;fillColor=#fad7ac;strokeColor=#b46504;" parent="1" vertex="1">
          <mxGeometry x="205" y="383" width="140" height="30" as="geometry" />
        </mxCell>
        <mxCell id="2Wd-GS6qr9fwty7BjQF4-14" value="&lt;font color=&quot;#000000&quot;&gt;erp_px_cat_g1v2&lt;/font&gt;" style="rounded=1;whiteSpace=wrap;html=1;fillColor=#fad7ac;strokeColor=#b46504;" parent="1" vertex="1">
          <mxGeometry x="205" y="423" width="140" height="30" as="geometry" />
        </mxCell>
        <mxCell id="2Wd-GS6qr9fwty7BjQF4-23" style="edgeStyle=orthogonalEdgeStyle;rounded=0;orthogonalLoop=1;jettySize=auto;html=1;entryX=0.003;entryY=0.606;entryDx=0;entryDy=0;entryPerimeter=0;" parent="1" source="2Wd-GS6qr9fwty7BjQF4-4" target="2Wd-GS6qr9fwty7BjQF4-5" edge="1">
          <mxGeometry relative="1" as="geometry" />
        </mxCell>
        <mxCell id="6ItISwijsfF4My4xdIuM-1" value="" style="rounded=1;whiteSpace=wrap;html=1;fillColor=none;strokeColor=#666666;gradientColor=#b3b3b3;" parent="1" vertex="1">
          <mxGeometry x="390" y="153" width="150" height="410" as="geometry" />
        </mxCell>
        <mxCell id="6ItISwijsfF4My4xdIuM-2" value="&lt;font style=&quot;font-size: 14px; color: light-dark(rgb(0, 0, 0), rgb(0, 0, 0));&quot;&gt;SILVER LAYER&lt;/font&gt;" style="rounded=1;whiteSpace=wrap;html=1;strokeColor=#666666;fillColor=#f5f5f5;gradientColor=#b3b3b3;" parent="1" vertex="1">
          <mxGeometry x="390" y="80" width="150" height="60" as="geometry" />
        </mxCell>
        <mxCell id="6ItISwijsfF4My4xdIuM-3" value="&lt;font style=&quot;color: rgb(0, 0, 0);&quot;&gt;crm_sales_details&lt;/font&gt;" style="rounded=1;whiteSpace=wrap;html=1;fillColor=#f5f5f5;strokeColor=#666666;gradientColor=#b3b3b3;" parent="1" vertex="1">
          <mxGeometry x="395" y="180" width="140" height="30" as="geometry" />
        </mxCell>
        <mxCell id="6ItISwijsfF4My4xdIuM-4" value="&lt;font style=&quot;color: rgb(0, 0, 0);&quot;&gt;crm_cust_info&lt;/font&gt;" style="rounded=1;whiteSpace=wrap;html=1;fillColor=#f5f5f5;strokeColor=#666666;gradientColor=#b3b3b3;" parent="1" vertex="1">
          <mxGeometry x="395" y="220" width="140" height="30" as="geometry" />
        </mxCell>
        <mxCell id="6ItISwijsfF4My4xdIuM-5" value="&lt;font style=&quot;color: rgb(0, 0, 0);&quot;&gt;crm_prd_info&lt;/font&gt;" style="rounded=1;whiteSpace=wrap;html=1;fillColor=#f5f5f5;strokeColor=#666666;gradientColor=#b3b3b3;" parent="1" vertex="1">
          <mxGeometry x="395" y="260" width="140" height="30" as="geometry" />
        </mxCell>
        <mxCell id="6ItISwijsfF4My4xdIuM-6" value="&lt;font color=&quot;#000000&quot;&gt;erp_cust_az12&lt;/font&gt;" style="rounded=1;whiteSpace=wrap;html=1;fillColor=#f5f5f5;strokeColor=#666666;gradientColor=#b3b3b3;" parent="1" vertex="1">
          <mxGeometry x="395" y="343" width="140" height="30" as="geometry" />
        </mxCell>
        <mxCell id="6ItISwijsfF4My4xdIuM-7" value="&lt;font color=&quot;#000000&quot;&gt;erp_loc_a101&lt;/font&gt;" style="rounded=1;whiteSpace=wrap;html=1;fillColor=#f5f5f5;strokeColor=#666666;gradientColor=#b3b3b3;" parent="1" vertex="1">
          <mxGeometry x="395" y="383" width="140" height="30" as="geometry" />
        </mxCell>
        <mxCell id="6ItISwijsfF4My4xdIuM-9" value="&lt;font color=&quot;#000000&quot;&gt;erp_px_cat_g1v2&lt;/font&gt;" style="rounded=1;whiteSpace=wrap;html=1;fillColor=#f5f5f5;strokeColor=#666666;gradientColor=#b3b3b3;" parent="1" vertex="1">
          <mxGeometry x="395" y="423" width="140" height="30" as="geometry" />
        </mxCell>
        <mxCell id="6ItISwijsfF4My4xdIuM-11" style="edgeStyle=orthogonalEdgeStyle;rounded=0;orthogonalLoop=1;jettySize=auto;html=1;entryX=-0.005;entryY=0.101;entryDx=0;entryDy=0;entryPerimeter=0;" parent="1" source="2Wd-GS6qr9fwty7BjQF4-9" target="6ItISwijsfF4My4xdIuM-1" edge="1">
          <mxGeometry relative="1" as="geometry" />
        </mxCell>
        <mxCell id="6ItISwijsfF4My4xdIuM-12" style="edgeStyle=orthogonalEdgeStyle;rounded=0;orthogonalLoop=1;jettySize=auto;html=1;entryX=0.016;entryY=0.2;entryDx=0;entryDy=0;entryPerimeter=0;" parent="1" source="2Wd-GS6qr9fwty7BjQF4-10" target="6ItISwijsfF4My4xdIuM-1" edge="1">
          <mxGeometry relative="1" as="geometry" />
        </mxCell>
        <mxCell id="6ItISwijsfF4My4xdIuM-17" style="edgeStyle=orthogonalEdgeStyle;rounded=0;orthogonalLoop=1;jettySize=auto;html=1;entryX=0.032;entryY=0.696;entryDx=0;entryDy=0;entryPerimeter=0;" parent="1" source="2Wd-GS6qr9fwty7BjQF4-14" target="6ItISwijsfF4My4xdIuM-1" edge="1">
          <mxGeometry relative="1" as="geometry" />
        </mxCell>
        <mxCell id="6ItISwijsfF4My4xdIuM-18" style="edgeStyle=orthogonalEdgeStyle;rounded=0;orthogonalLoop=1;jettySize=auto;html=1;entryX=0.021;entryY=0.298;entryDx=0;entryDy=0;entryPerimeter=0;" parent="1" source="2Wd-GS6qr9fwty7BjQF4-11" target="6ItISwijsfF4My4xdIuM-1" edge="1">
          <mxGeometry relative="1" as="geometry" />
        </mxCell>
        <mxCell id="bRY6IPjUY3DkEBc1iSdZ-1" value="" style="rounded=1;whiteSpace=wrap;html=1;fillColor=none;strokeColor=#d6b656;gradientColor=#ffd966;" vertex="1" parent="1">
          <mxGeometry x="590" y="153" width="150" height="410" as="geometry" />
        </mxCell>
        <mxCell id="bRY6IPjUY3DkEBc1iSdZ-2" value="&lt;font color=&quot;#000000&quot;&gt;&lt;span style=&quot;font-size: 14px;&quot;&gt;GOLD LAYER&lt;/span&gt;&lt;/font&gt;" style="rounded=1;whiteSpace=wrap;html=1;strokeColor=#d6b656;fillColor=#fff2cc;gradientColor=#ffd966;" vertex="1" parent="1">
          <mxGeometry x="590" y="80" width="150" height="60" as="geometry" />
        </mxCell>
        <mxCell id="bRY6IPjUY3DkEBc1iSdZ-3" value="&lt;font color=&quot;#000000&quot;&gt;fact_sales&lt;/font&gt;" style="rounded=1;whiteSpace=wrap;html=1;fillColor=#fff2cc;strokeColor=#d6b656;gradientColor=#ffd966;" vertex="1" parent="1">
          <mxGeometry x="600" y="180" width="140" height="30" as="geometry" />
        </mxCell>
        <mxCell id="bRY6IPjUY3DkEBc1iSdZ-4" value="&lt;font color=&quot;#000000&quot;&gt;dim_customers&lt;/font&gt;" style="rounded=1;whiteSpace=wrap;html=1;fillColor=#fff2cc;strokeColor=#d6b656;gradientColor=#ffd966;" vertex="1" parent="1">
          <mxGeometry x="595" y="320" width="140" height="30" as="geometry" />
        </mxCell>
        <mxCell id="bRY6IPjUY3DkEBc1iSdZ-5" value="&lt;font color=&quot;#000000&quot;&gt;dim_products&lt;/font&gt;" style="rounded=1;whiteSpace=wrap;html=1;fillColor=#fff2cc;strokeColor=#d6b656;gradientColor=#ffd966;" vertex="1" parent="1">
          <mxGeometry x="595" y="360" width="140" height="30" as="geometry" />
        </mxCell>
        <mxCell id="bRY6IPjUY3DkEBc1iSdZ-9" value="" style="endArrow=classic;html=1;rounded=0;exitX=1;exitY=0.75;exitDx=0;exitDy=0;jumpStyle=gap;" edge="1" parent="1" source="6ItISwijsfF4My4xdIuM-3">
          <mxGeometry width="50" height="50" relative="1" as="geometry">
            <mxPoint x="550" y="250" as="sourcePoint" />
            <mxPoint x="600" y="200" as="targetPoint" />
            <Array as="points">
              <mxPoint x="540" y="200" />
            </Array>
          </mxGeometry>
        </mxCell>
        <mxCell id="bRY6IPjUY3DkEBc1iSdZ-11" value="" style="endArrow=classic;html=1;rounded=0;exitX=0.987;exitY=0.216;exitDx=0;exitDy=0;exitPerimeter=0;entryX=0;entryY=0.75;entryDx=0;entryDy=0;jumpStyle=gap;" edge="1" parent="1" source="6ItISwijsfF4My4xdIuM-1" target="bRY6IPjUY3DkEBc1iSdZ-4">
          <mxGeometry width="50" height="50" relative="1" as="geometry">
            <mxPoint x="580" y="340" as="sourcePoint" />
            <mxPoint x="630" y="290" as="targetPoint" />
          </mxGeometry>
        </mxCell>
        <mxCell id="bRY6IPjUY3DkEBc1iSdZ-12" value="" style="endArrow=classic;html=1;rounded=0;exitX=0.987;exitY=0.216;exitDx=0;exitDy=0;exitPerimeter=0;entryX=0.016;entryY=0.474;entryDx=0;entryDy=0;entryPerimeter=0;jumpStyle=gap;" edge="1" parent="1" target="bRY6IPjUY3DkEBc1iSdZ-1">
          <mxGeometry width="50" height="50" relative="1" as="geometry">
            <mxPoint x="535" y="357" as="sourcePoint" />
            <mxPoint x="590" y="453" as="targetPoint" />
            <Array as="points" />
          </mxGeometry>
        </mxCell>
        <mxCell id="bRY6IPjUY3DkEBc1iSdZ-13" value="" style="endArrow=classic;html=1;rounded=0;exitX=1.024;exitY=0.612;exitDx=0;exitDy=0;exitPerimeter=0;entryX=0.005;entryY=0.462;entryDx=0;entryDy=0;entryPerimeter=0;jumpStyle=gap;" edge="1" parent="1" source="6ItISwijsfF4My4xdIuM-1" target="bRY6IPjUY3DkEBc1iSdZ-1">
          <mxGeometry width="50" height="50" relative="1" as="geometry">
            <mxPoint x="545" y="367" as="sourcePoint" />
            <mxPoint x="602" y="357" as="targetPoint" />
            <Array as="points" />
          </mxGeometry>
        </mxCell>
        <mxCell id="bRY6IPjUY3DkEBc1iSdZ-14" value="" style="endArrow=classic;html=1;rounded=0;exitX=0.987;exitY=0.216;exitDx=0;exitDy=0;exitPerimeter=0;entryX=0;entryY=0.75;entryDx=0;entryDy=0;jumpStyle=gap;" edge="1" parent="1">
          <mxGeometry width="50" height="50" relative="1" as="geometry">
            <mxPoint x="535" y="272" as="sourcePoint" />
            <mxPoint x="592" y="373" as="targetPoint" />
          </mxGeometry>
        </mxCell>
        <mxCell id="bRY6IPjUY3DkEBc1iSdZ-15" value="" style="endArrow=classic;html=1;rounded=0;exitX=1.024;exitY=0.612;exitDx=0;exitDy=0;exitPerimeter=0;entryX=0;entryY=0.54;entryDx=0;entryDy=0;entryPerimeter=0;jumpStyle=gap;" edge="1" parent="1" target="bRY6IPjUY3DkEBc1iSdZ-1">
          <mxGeometry width="50" height="50" relative="1" as="geometry">
            <mxPoint x="540" y="445" as="sourcePoint" />
            <mxPoint x="587" y="383" as="targetPoint" />
            <Array as="points" />
          </mxGeometry>
        </mxCell>
      </root>
    </mxGraphModel>
  </diagram>
</mxfile>
